<svg xmlns="http://www.w3.org/2000/svg" width="128" height="128" viewBox="0 0 128 128"><g transform="rotate(-8 64 64)"><g fill="#7CC86E" stroke="#1D2433" stroke-width="12" stroke-linejoin="round" stroke-linecap="round" paint-order="stroke"><rect x="14" y="34" width="100" height="60" rx="10"/></g><rect x="23" y="43" width="82" height="42" rx="6" fill="none" stroke="#3F9A54" stroke-width="4"/><circle cx="32" cy="52" r="4.5" fill="#3F9A54"/><circle cx="96" cy="52" r="4.5" fill="#3F9A54"/><circle cx="32" cy="76" r="4.5" fill="#3F9A54"/><circle cx="96" cy="76" r="4.5" fill="#3F9A54"/><g fill="#C8EBB8" stroke="#1D2433" stroke-width="6" stroke-linejoin="round" stroke-linecap="round" paint-order="stroke"><circle cx="64" cy="64" r="19"/></g><g transform="translate(64 63) scale(0.42)"><path d="M-20 24 C-29 10 -29 -8 -19 -18 C-13 -24 -7 -26 0 -26 C7 -26 13 -24 19 -18 C29 -8 29 10 20 24" fill="none" stroke="#1D2433" stroke-width="14.30952380952381" stroke-linecap="round" stroke-linejoin="round"/><path d="M-20 24 C-29 10 -29 -8 -19 -18 C-13 -24 -7 -26 0 -26 C7 -26 13 -24 19 -18 C29 -8 29 10 20 24" fill="none" stroke="#3F9A54" stroke-width="14.285714285714286" stroke-linecap="round" stroke-linejoin="round"/></g></g></svg>
