<svg xmlns="http://www.w3.org/2000/svg" width="128" height="128" viewBox="0 0 128 128"><defs><clipPath id="lane_8_blankc"><rect x="10" y="10" width="108" height="108" rx="26"/></clipPath></defs><g fill="#3A3F4B" stroke="#1D2433" stroke-width="12" stroke-linejoin="round" stroke-linecap="round" paint-order="stroke"><rect x="10" y="10" width="108" height="108" rx="26"/></g><g clip-path="url(#lane_8_blankc)" opacity="0.85"><path d="M16 4 L25 16 L16 28 L7 16 Z" fill="#FFFFFF"/><path d="M16 36 L25 48 L16 60 L7 48 Z" fill="#FFFFFF"/><path d="M16 68 L25 80 L16 92 L7 80 Z" fill="#FFFFFF"/><path d="M16 100 L25 112 L16 124 L7 112 Z" fill="#FFFFFF"/><path d="M48 4 L57 16 L48 28 L39 16 Z" fill="#FFFFFF"/><path d="M48 36 L57 48 L48 60 L39 48 Z" fill="#FFFFFF"/><path d="M48 68 L57 80 L48 92 L39 80 Z" fill="#FFFFFF"/><path d="M48 100 L57 112 L48 124 L39 112 Z" fill="#FFFFFF"/><path d="M80 4 L89 16 L80 28 L71 16 Z" fill="#FFFFFF"/><path d="M80 36 L89 48 L80 60 L71 48 Z" fill="#FFFFFF"/><path d="M80 68 L89 80 L80 92 L71 80 Z" fill="#FFFFFF"/><path d="M80 100 L89 112 L80 124 L71 112 Z" fill="#FFFFFF"/><path d="M112 4 L121 16 L112 28 L103 16 Z" fill="#FFFFFF"/><path d="M112 36 L121 48 L112 60 L103 48 Z" fill="#FFFFFF"/><path d="M112 68 L121 80 L112 92 L103 80 Z" fill="#FFFFFF"/><path d="M112 100 L121 112 L112 124 L103 112 Z" fill="#FFFFFF"/></g><rect x="10" y="10" width="108" height="108" rx="26" fill="none" stroke="#1D2433" stroke-width="6"/><g fill="#FFFFFF" stroke="#1D2433" stroke-width="8" stroke-linejoin="round" stroke-linecap="round" paint-order="stroke"><circle cx="64" cy="64" r="30"/></g></svg>
