<svg xmlns="http://www.w3.org/2000/svg" width="128" height="128" viewBox="0 0 128 128"><g fill="#F2A65A" stroke="#1D2433" stroke-width="12" stroke-linejoin="round" stroke-linecap="round" paint-order="stroke"><path d="M64.0 14.0 A10 10 0 0 1 81.1 17.0 A10 10 0 0 1 96.1 25.7 A10 10 0 0 1 107.3 39.0 A10 10 0 0 1 113.2 55.3 A10 10 0 0 1 113.2 72.7 A10 10 0 0 1 107.3 89.0 A10 10 0 0 1 96.1 102.3 A10 10 0 0 1 81.1 111.0 A10 10 0 0 1 64.0 114.0 A10 10 0 0 1 46.9 111.0 A10 10 0 0 1 31.9 102.3 A10 10 0 0 1 20.7 89.0 A10 10 0 0 1 14.8 72.7 A10 10 0 0 1 14.8 55.3 A10 10 0 0 1 20.7 39.0 A10 10 0 0 1 31.9 25.7 A10 10 0 0 1 46.9 17.0 A10 10 0 0 1 64.0 14.0 Z"/></g><circle cx="64" cy="64" r="45" fill="none" stroke="#D27F2E" stroke-width="3" stroke-dasharray="5 4"/><g fill="#FFF7E6" stroke="#1D2433" stroke-width="6" stroke-linejoin="round" stroke-linecap="round" paint-order="stroke"><circle cx="64" cy="64" r="38"/></g><g transform="translate(64 64) rotate(0) scale(0.52) translate(-64 -64)"><g transform="translate(64 64) scale(1.55)"><path d="M-20 24 C-29 10 -29 -8 -19 -18 C-13 -24 -7 -26 0 -26 C7 -26 13 -24 19 -18 C29 -8 29 10 20 24" fill="none" stroke="#1D2433" stroke-width="21.93548387096774" stroke-linecap="round" stroke-linejoin="round"/><path d="M-20 24 C-29 10 -29 -8 -19 -18 C-13 -24 -7 -26 0 -26 C7 -26 13 -24 19 -18 C29 -8 29 10 20 24" fill="none" stroke="#CDD5E0" stroke-width="14.193548387096774" stroke-linecap="round" stroke-linejoin="round"/><circle cx="-24" cy="12" r="2.8" fill="#1D2433"/><circle cx="-25" cy="-4" r="2.8" fill="#1D2433"/><circle cx="-17" cy="-17" r="2.8" fill="#1D2433"/><circle cx="24" cy="12" r="2.8" fill="#1D2433"/><circle cx="25" cy="-4" r="2.8" fill="#1D2433"/><circle cx="17" cy="-17" r="2.8" fill="#1D2433"/></g></g></svg>
