<svg xmlns="http://www.w3.org/2000/svg" width="128" height="128" viewBox="0 0 128 128"><path d="M40 24 C38 52 48 64 64 66" fill="none" stroke="#1D2433" stroke-width="16" stroke-linecap="round" stroke-linejoin="round"/><path d="M40 24 C38 52 48 64 64 66" fill="none" stroke="#17A398" stroke-width="8" stroke-linecap="round" stroke-linejoin="round"/><path d="M88 24 C90 52 80 64 64 66" fill="none" stroke="#1D2433" stroke-width="16" stroke-linecap="round" stroke-linejoin="round"/><path d="M88 24 C90 52 80 64 64 66" fill="none" stroke="#17A398" stroke-width="8" stroke-linecap="round" stroke-linejoin="round"/><path d="M64 66 C64 96 74 108 88 106 C100 104 102 92 98 84" fill="none" stroke="#1D2433" stroke-width="16" stroke-linecap="round" stroke-linejoin="round"/><path d="M64 66 C64 96 74 108 88 106 C100 104 102 92 98 84" fill="none" stroke="#17A398" stroke-width="8" stroke-linecap="round" stroke-linejoin="round"/><g fill="#9AA6B6" stroke="#1D2433" stroke-width="8" stroke-linejoin="round" stroke-linecap="round" paint-order="stroke"><circle cx="40" cy="20" r="7"/><circle cx="88" cy="20" r="7"/></g><g fill="#9AA6B6" stroke="#1D2433" stroke-width="10" stroke-linejoin="round" stroke-linecap="round" paint-order="stroke"><circle cx="98" cy="74" r="15"/></g><g fill="#CDD5E0" stroke="#1D2433" stroke-width="5" stroke-linejoin="round" stroke-linecap="round" paint-order="stroke"><circle cx="98" cy="74" r="8"/></g></svg>
